<svg width="152" height="70" viewBox="0 0 152 70" fill="none" xmlns="http://www.w3.org/2000/svg">
<path d="M12.8409 39H2.52841V9.90909H12.9261C15.8523 9.90909 18.3712 10.4915 20.483 11.6562C22.5947 12.8116 24.2188 14.4735 25.3551 16.642C26.5009 18.8106 27.0739 21.4053 27.0739 24.4261C27.0739 27.4564 26.5009 30.0606 25.3551 32.2386C24.2188 34.4167 22.5852 36.0881 20.4545 37.2528C18.3333 38.4176 15.7955 39 12.8409 39ZM8.67898 33.7301H12.5852C14.4034 33.7301 15.9328 33.4081 17.1733 32.7642C18.4233 32.1108 19.3608 31.1023 19.9858 29.7386C20.6203 28.3655 20.9375 26.5947 20.9375 24.4261C20.9375 22.2765 20.6203 20.5199 19.9858 19.1562C19.3608 17.7926 18.428 16.7888 17.1875 16.1449C15.947 15.5009 14.4176 15.179 12.5994 15.179H8.67898V33.7301ZM37.7379 39.4119C36.3459 39.4119 35.1054 39.1705 34.0163 38.6875C32.9273 38.1951 32.0656 37.4706 31.4311 36.5142C30.8061 35.5483 30.4936 34.3456 30.4936 32.9062C30.4936 31.6941 30.7161 30.6761 31.1612 29.8523C31.6063 29.0284 32.2124 28.3655 32.9794 27.8636C33.7464 27.3617 34.6177 26.983 35.593 26.7273C36.5779 26.4716 37.6101 26.2917 38.6896 26.1875C39.9586 26.0549 40.9813 25.9318 41.7578 25.8182C42.5343 25.6951 43.0978 25.5152 43.4482 25.2784C43.7985 25.0417 43.9737 24.6913 43.9737 24.2273V24.142C43.9737 23.2424 43.6896 22.5464 43.1214 22.054C42.5627 21.5616 41.7673 21.3153 40.7351 21.3153C39.6461 21.3153 38.7796 21.5568 38.1357 22.0398C37.4917 22.5133 37.0656 23.1098 36.8572 23.8295L31.2607 23.375C31.5447 22.0492 32.1035 20.9034 32.9368 19.9375C33.7701 18.9621 34.8449 18.214 36.1612 17.6932C37.487 17.1629 39.0211 16.8977 40.7635 16.8977C41.9756 16.8977 43.1357 17.0398 44.2436 17.3239C45.361 17.608 46.3506 18.0483 47.2124 18.6449C48.0836 19.2415 48.7701 20.0085 49.272 20.946C49.7739 21.8741 50.0249 22.9867 50.0249 24.2841V39H44.2862V35.9744H44.1158C43.7654 36.6562 43.2966 37.2576 42.7095 37.7784C42.1224 38.2898 41.4169 38.6922 40.593 38.9858C39.7692 39.2699 38.8175 39.4119 37.7379 39.4119ZM39.4709 35.2358C40.361 35.2358 41.147 35.0606 41.8288 34.7102C42.5107 34.3504 43.0457 33.8674 43.4339 33.2614C43.8222 32.6553 44.0163 31.9687 44.0163 31.2017V28.8864C43.8269 29.0095 43.5665 29.1231 43.2351 29.2273C42.9131 29.322 42.5485 29.4119 42.1413 29.4972C41.7341 29.5729 41.3269 29.6439 40.9197 29.7102C40.5125 29.767 40.1432 29.8191 39.8118 29.8665C39.1016 29.9706 38.4813 30.1364 37.951 30.3636C37.4207 30.5909 37.0088 30.8987 36.7152 31.2869C36.4216 31.6657 36.2749 32.1392 36.2749 32.7074C36.2749 33.5312 36.5732 34.161 37.1697 34.5966C37.7758 35.0227 38.5429 35.2358 39.4709 35.2358ZM60.7706 26.3864V39H54.7195V17.1818H60.4865V21.0312H60.7422C61.2251 19.7623 62.0348 18.7585 63.1712 18.0199C64.3075 17.2718 65.6854 16.8977 67.3047 16.8977C68.8198 16.8977 70.1409 17.2292 71.2678 17.892C72.3947 18.5549 73.2706 19.5019 73.8956 20.733C74.5206 21.9545 74.8331 23.4129 74.8331 25.108V39H68.782V26.1875C68.7914 24.8523 68.4505 23.8106 67.7592 23.0625C67.0679 22.3049 66.1162 21.9261 64.9041 21.9261C64.0897 21.9261 63.37 22.1013 62.745 22.4517C62.1295 22.8021 61.6465 23.3134 61.2962 23.9858C60.9553 24.6487 60.7801 25.4489 60.7706 26.3864ZM79.6023 39V17.1818H85.6534V39H79.6023ZM82.642 14.3693C81.7424 14.3693 80.9706 14.071 80.3267 13.4744C79.6922 12.8684 79.375 12.1439 79.375 11.3011C79.375 10.4678 79.6922 9.75284 80.3267 9.15625C80.9706 8.55019 81.7424 8.24716 82.642 8.24716C83.5417 8.24716 84.3087 8.55019 84.9432 9.15625C85.5871 9.75284 85.9091 10.4678 85.9091 11.3011C85.9091 12.1439 85.5871 12.8684 84.9432 13.4744C84.3087 14.071 83.5417 14.3693 82.642 14.3693ZM100.444 39.4261C98.1996 39.4261 96.2678 38.9716 94.6484 38.0625C93.0386 37.1439 91.7981 35.8466 90.9268 34.1705C90.0556 32.4848 89.62 30.4915 89.62 28.1903C89.62 25.946 90.0556 23.9763 90.9268 22.2812C91.7981 20.5862 93.0244 19.2652 94.6058 18.3182C96.1967 17.3712 98.0623 16.8977 100.202 16.8977C101.642 16.8977 102.982 17.1297 104.222 17.5938C105.472 18.0483 106.561 18.7348 107.489 19.6534C108.427 20.572 109.156 21.7273 109.677 23.1193C110.198 24.5019 110.458 26.1212 110.458 27.9773V29.6392H92.0348V25.8892H104.762C104.762 25.018 104.573 24.2462 104.194 23.5739C103.815 22.9015 103.29 22.3759 102.617 21.9972C101.954 21.6089 101.183 21.4148 100.302 21.4148C99.3833 21.4148 98.5689 21.6278 97.8587 22.054C97.1579 22.4706 96.6087 23.0341 96.2109 23.7443C95.8132 24.4451 95.6096 25.2263 95.6001 26.0881V29.6534C95.6001 30.733 95.799 31.6657 96.1967 32.4517C96.6039 33.2377 97.1768 33.8438 97.9155 34.2699C98.6541 34.696 99.5301 34.9091 100.543 34.9091C101.216 34.9091 101.831 34.8144 102.39 34.625C102.949 34.4356 103.427 34.1515 103.825 33.7727C104.222 33.3939 104.525 32.9299 104.734 32.3807L110.33 32.75C110.046 34.0947 109.464 35.2689 108.583 36.2727C107.712 37.267 106.585 38.0436 105.202 38.6023C103.829 39.1515 102.243 39.4261 100.444 39.4261ZM120.458 9.90909V39H114.407V9.90909H120.458ZM130.376 9.90909V12.9773C130.376 13.8485 130.206 14.7386 129.865 15.6477C129.534 16.5473 129.089 17.3996 128.53 18.2045C127.971 19 127.36 19.6771 126.697 20.2358L124.027 18.6591C124.5 17.911 124.917 17.0824 125.277 16.1733C125.646 15.2642 125.831 14.2083 125.831 13.0057V9.90909H130.376ZM149.826 23.4034L144.286 23.7443C144.192 23.2708 143.988 22.8447 143.675 22.4659C143.363 22.0777 142.951 21.7699 142.44 21.5426C141.938 21.3059 141.336 21.1875 140.636 21.1875C139.698 21.1875 138.907 21.3864 138.263 21.7841C137.62 22.1723 137.298 22.6932 137.298 23.3466C137.298 23.8674 137.506 24.3078 137.923 24.6676C138.339 25.0275 139.054 25.3163 140.067 25.5341L144.016 26.3295C146.138 26.7652 147.719 27.4659 148.761 28.4318C149.802 29.3977 150.323 30.6667 150.323 32.2386C150.323 33.6686 149.902 34.9233 149.059 36.0028C148.226 37.0824 147.08 37.9252 145.621 38.5312C144.173 39.1278 142.501 39.4261 140.607 39.4261C137.719 39.4261 135.418 38.8248 133.704 37.6222C131.999 36.41 131 34.7623 130.707 32.679L136.658 32.3665C136.838 33.2472 137.274 33.9195 137.965 34.3835C138.656 34.8381 139.542 35.0653 140.621 35.0653C141.682 35.0653 142.534 34.8617 143.178 34.4545C143.832 34.0379 144.163 33.5028 144.173 32.8494C144.163 32.3002 143.931 31.8504 143.477 31.5C143.022 31.1402 142.321 30.8655 141.374 30.6761L137.596 29.9233C135.465 29.4972 133.879 28.7585 132.837 27.7074C131.805 26.6562 131.289 25.3163 131.289 23.6875C131.289 22.286 131.668 21.0786 132.425 20.0653C133.192 19.0521 134.267 18.2708 135.65 17.7216C137.042 17.1723 138.671 16.8977 140.536 16.8977C143.292 16.8977 145.46 17.4801 147.042 18.6449C148.633 19.8097 149.561 21.3958 149.826 23.4034Z" fill="#FF0000"/>
<path d="M30.7624 64V46.5455H34.9812V53.9261H35.2113L40.9812 46.5455H45.9499L39.7624 54.3352L46.0607 64H41.0153L36.6687 57.1392L34.9812 59.2699V64H30.7624ZM48.4343 64V50.9091H52.6019V64H48.4343ZM50.5224 49.3835C49.9371 49.3835 49.4343 49.1903 49.0138 48.804C48.5934 48.4119 48.3832 47.9403 48.3832 47.3892C48.3832 46.8437 48.5934 46.3778 49.0138 45.9915C49.4343 45.5994 49.9371 45.4034 50.5224 45.4034C51.1133 45.4034 51.6161 45.5994 52.0309 45.9915C52.4513 46.3778 52.6616 46.8437 52.6616 47.3892C52.6616 47.9403 52.4513 48.4119 52.0309 48.804C51.6161 49.1903 51.1133 49.3835 50.5224 49.3835ZM62.6438 50.9091V53.9773H54.3853V50.9091H62.6438ZM56.1154 47.7727H60.283V59.8835C60.283 60.1392 60.3228 60.3466 60.4023 60.5057C60.4876 60.6591 60.6097 60.7699 60.7688 60.8381C60.9279 60.9006 61.1183 60.9318 61.3398 60.9318C61.4989 60.9318 61.6665 60.9176 61.8427 60.8892C62.0245 60.8551 62.1609 60.8267 62.2518 60.804L62.8825 63.8125C62.6836 63.8693 62.4023 63.9403 62.0387 64.0256C61.6808 64.1108 61.2518 64.1648 60.7518 64.1875C59.7745 64.233 58.9364 64.1193 58.2376 63.8466C57.5444 63.5682 57.0131 63.1364 56.6438 62.5511C56.2802 61.9659 56.104 61.2301 56.1154 60.3438V47.7727ZM70.7404 64.2472C69.3597 64.2472 68.1751 63.9631 67.1864 63.3949C66.2035 62.8267 65.4478 62.0369 64.9194 61.0256C64.391 60.0085 64.1268 58.8324 64.1268 57.4972C64.1268 56.1562 64.391 54.9801 64.9194 53.9688C65.4535 52.9517 66.212 52.1591 67.195 51.5909C68.1836 51.0227 69.3626 50.7386 70.7319 50.7386C71.9421 50.7386 72.9961 50.9574 73.8938 51.3949C74.7972 51.8324 75.5018 52.4517 76.0075 53.2528C76.5188 54.0483 76.7887 54.983 76.8171 56.0568H72.9222C72.8427 55.3864 72.6154 54.8608 72.2404 54.4801C71.8711 54.0994 71.3881 53.9091 70.7915 53.9091C70.3086 53.9091 69.8853 54.0455 69.5217 54.3182C69.158 54.5852 68.8739 54.983 68.6694 55.5114C68.4705 56.0341 68.3711 56.6818 68.3711 57.4545C68.3711 58.2273 68.4705 58.8807 68.6694 59.4148C68.8739 59.9432 69.158 60.3437 69.5217 60.6165C69.8853 60.8835 70.3086 61.017 70.7915 61.017C71.1779 61.017 71.5188 60.9347 71.8143 60.7699C72.1154 60.6051 72.3626 60.3636 72.5558 60.0455C72.7489 59.7216 72.8711 59.3295 72.9222 58.8693H76.8171C76.7773 59.9489 76.5075 60.892 76.0075 61.6989C75.5131 62.5057 74.8171 63.1335 73.9194 63.5824C73.0273 64.0256 71.9677 64.2472 70.7404 64.2472ZM83.1175 56.5341V64H78.9499V46.5455H82.9812V53.3125H83.1261C83.4215 52.5057 83.9045 51.875 84.5749 51.4205C85.2511 50.9659 86.0778 50.7386 87.055 50.7386C87.9755 50.7386 88.7766 50.9432 89.4585 51.3523C90.1403 51.7557 90.6687 52.3267 91.0437 53.0653C91.4244 53.804 91.6119 54.6676 91.6062 55.6562V64H87.4386V56.4744C87.4442 55.7472 87.2624 55.179 86.8931 54.7699C86.5238 54.3608 86.0039 54.1562 85.3335 54.1562C84.896 54.1562 84.5096 54.2528 84.1744 54.446C83.8448 54.6335 83.5863 54.9034 83.3988 55.2557C83.217 55.608 83.1232 56.0341 83.1175 56.5341ZM100.327 64.2472C98.9577 64.2472 97.7759 63.9773 96.7816 63.4375C95.793 62.892 95.0316 62.1165 94.4975 61.1108C93.9691 60.0994 93.7049 58.8977 93.7049 57.5057C93.7049 56.1534 93.9719 54.9716 94.506 53.9602C95.0401 52.9432 95.793 52.1534 96.7646 51.5909C97.7362 51.0227 98.881 50.7386 100.199 50.7386C101.131 50.7386 101.983 50.8835 102.756 51.1733C103.529 51.4631 104.196 51.892 104.759 52.4602C105.321 53.0284 105.759 53.7301 106.071 54.5653C106.384 55.3949 106.54 56.3466 106.54 57.4205V58.4602H95.1623V56.0398H102.662C102.657 55.5966 102.551 55.2017 102.347 54.8551C102.142 54.5085 101.861 54.2386 101.503 54.0455C101.151 53.8466 100.745 53.7472 100.284 53.7472C99.8185 53.7472 99.4009 53.8523 99.0316 54.0625C98.6623 54.267 98.3697 54.5483 98.1538 54.9062C97.9379 55.2585 97.8242 55.6591 97.8129 56.108V58.571C97.8129 59.1051 97.918 59.5739 98.1282 59.9773C98.3384 60.375 98.6367 60.6847 99.0231 60.9062C99.4094 61.1278 99.8697 61.2386 100.404 61.2386C100.773 61.2386 101.108 61.1875 101.409 61.0852C101.711 60.983 101.969 60.8324 102.185 60.6335C102.401 60.4347 102.563 60.1903 102.671 59.9006L106.498 60.0114C106.338 60.8693 105.989 61.6165 105.449 62.2528C104.915 62.8835 104.213 63.375 103.344 63.7273C102.475 64.0739 101.469 64.2472 100.327 64.2472ZM112.836 56.5341V64H108.669V50.9091H112.632V53.3125H112.777C113.066 52.5114 113.561 51.8835 114.26 51.429C114.958 50.9688 115.791 50.7386 116.757 50.7386C117.677 50.7386 118.475 50.946 119.152 51.3608C119.833 51.7699 120.362 52.3437 120.737 53.0824C121.118 53.8153 121.305 54.6733 121.299 55.6562V64H117.132V56.4744C117.137 55.7472 116.953 55.179 116.578 54.7699C116.208 54.3608 115.694 54.1562 115.035 54.1562C114.598 54.1562 114.211 54.2528 113.876 54.446C113.547 54.6335 113.291 54.9034 113.109 55.2557C112.933 55.608 112.842 56.0341 112.836 56.5341Z" fill="black"/>
</svg>
